# xmcd
#
# Track frame offsets:
#	150
#	10640
#	22540
#	33511
#	43575
#	54446
#	70920
#	82745
#	92593
#	113797
#	123137
#	139188
#	156074
#	177950
#	196910
#	209955
#	224884
#	248195
#	262417
#
# Disc length: 3692 seconds
#
# Revision: 1
# Processed by: cddbd v1.5.2PL0 Copyright (c) Steve Scherf et al.
# Submitted via: FairStars CD Ripper 1.90
#
DISCID=090e6a13
DTITLE=Reader's Digest - Various Artists - God's Country - Disc 1
DYEAR=1998
DGENRE=Gospel
TTITLE0=Wings of a Dove
TTITLE1=He's Got The Whole World In His Hands
TTITLE2=Crying In The Chapel
TTITLE3=Daddy Sang Bass
TTITLE4=I Believe
TTITLE5=Love Lifted Me
TTITLE6=Count Your Blessings
TTITLE7=The Hour Of Prayer
TTITLE8=Softly and Tenderly (Jesus Is Calling)
TTITLE9=Amazing Grace
TTITLE10=I Love To Tell The Story
TTITLE11=I Saw The Light
TTITLE12=How Great Art Thou
TTITLE13=Jesus Hold My Hand
TTITLE14=Just A Closer Walk With Thee
TTITLE15=Take My Hand Precious Lord
TTITLE16=It Is No Secret (What God Can Do)
TTITLE17=He Is My Everything
TTITLE18=People Get Ready
EXTD=
EXTT0=
EXTT1=
EXTT2=
EXTT3=
EXTT4=
EXTT5=
EXTT6=
EXTT7=
EXTT8=
EXTT9=
EXTT10=
EXTT11=
EXTT12=
EXTT13=
EXTT14=
EXTT15=
EXTT16=
EXTT17=
EXTT18=
PLAYORDER=
